<svg data-v-1084b650="" xmlns="http://www.w3.org/2000/svg" viewBox="0 0 300 300"><!----> <!----> <rect data-v-1084b650="" fill="#002C73" x="0" y="0" width="300px" height="300px" class="logo-background-square"></rect> <!----> <g data-v-1084b650="" id="6fb1743b-7303-e0ae-0d2d-f205a16402b1" fill="#FFD009" transform="matrix(28.000000000000043,0,0,28.000000000000043,110.38000130653373,-110.67998957634015)"><path d="M-1.19 13.01L-2.53 14.98C-2.44 15.16-2.16 15.34-1.70 15.53C-1.24 15.72-0.71 15.82-0.13 15.82C0.81 15.82 1.61 15.62 2.27 15.22C2.94 14.83 3.35 14.23 3.49 13.44L5.36 2.80L2.63 2.80L0.92 12.53C0.79 13.23 0.44 13.58-0.14 13.58C-0.38 13.58-0.60 13.53-0.79 13.42C-0.98 13.31-1.12 13.17-1.19 13.01Z"></path></g> <!----></svg>